<?xml version="1.0" encoding="UTF-8" standalone="no"?>
<!DOCTYPE svg PUBLIC "-//W3C//DTD SVG 1.1//EN" "http://www.w3.org/Graphics/SVG/1.1/DTD/svg11.dtd">
<svg width="100%" height="100%" viewBox="0 0 260 248" version="1.1" xmlns="http://www.w3.org/2000/svg" xmlns:xlink="http://www.w3.org/1999/xlink" xml:space="preserve" xmlns:serif="http://www.serif.com/" style="fill-rule:evenodd;clip-rule:evenodd;stroke-linejoin:round;stroke-miterlimit:2;">
    <g transform="matrix(3.12691,0,0,3.12691,-25.6837,-30.4862)">
        <path d="M72.027,42.114C72.945,43.032 74.166,43.539 75.465,43.539C76.766,43.539 77.985,43.032 78.973,42.042L88.596,30.722C89.446,29.872 92.145,26.823 91.143,23.235C90.713,21.918 89.214,17.533 88.016,16.33C86.563,14.883 82.67,13.934 81.704,13.716C81.053,13.486 80.295,13.365 79.508,13.365C77.317,13.365 75.117,14.257 73.695,15.683L62.232,25.438C61.314,26.357 60.804,27.579 60.804,28.88C60.804,30.179 61.312,31.401 62.232,32.32L66.244,36.332L51.384,51.191L36.933,36.742L42.152,31.523C42.225,31.45 42.265,31.36 42.317,31.275C42.491,31.183 42.646,31.05 42.765,30.876C43.157,30.306 43.011,29.527 42.441,29.136C40.782,27.999 39.623,27.308 38.598,26.698C36.42,25.397 35.106,24.613 31.189,20.696C26.432,15.938 23.714,10.499 23.686,10.445C23.379,9.826 22.628,9.575 22.01,9.878C21.39,10.184 21.138,10.935 21.442,11.554C21.56,11.791 24.361,17.405 29.42,22.465C33.557,26.601 35.053,27.495 37.318,28.847C38.025,29.269 38.807,29.738 39.771,30.364L35.021,35.114C35.002,35.11 34.983,35.107 34.964,35.103C33.775,34.316 32.848,33.759 32.025,33.268C29.846,31.967 28.533,31.181 24.616,27.266C19.861,22.51 17.142,17.07 17.113,17.017C16.807,16.397 16.056,16.145 15.437,16.45C14.818,16.755 14.565,17.506 14.87,18.124C14.987,18.362 17.788,23.977 22.847,29.035C26.983,33.17 28.48,34.064 30.743,35.416C31.45,35.839 32.233,36.309 33.199,36.937L28.477,41.659C27.27,40.859 26.332,40.295 25.5,39.798C23.321,38.497 22.006,37.713 18.089,33.796C13.335,29.041 10.615,23.603 10.587,23.547C10.28,22.93 9.529,22.678 8.911,22.98C8.291,23.287 8.038,24.036 8.343,24.657C8.46,24.893 11.262,30.508 16.32,35.564C20.456,39.702 21.953,40.594 24.217,41.946C25.209,42.539 26.332,43.211 27.927,44.304C28.143,44.451 28.388,44.522 28.633,44.522C29.031,44.522 29.425,44.333 29.667,43.979C29.7,43.931 29.707,43.875 29.732,43.825C29.859,43.765 29.982,43.694 30.087,43.589L35.164,38.512L49.615,52.962L27.799,74.775C27.72,74.853 27.675,74.95 27.622,75.042L25.557,72.977C24.177,71.594 21.592,71.758 20.031,73.317L18.697,74.651C17.08,76.27 16.926,78.75 18.355,80.18L24.524,86.344C25.157,86.979 26.029,87.33 26.975,87.33C28.087,87.33 29.207,86.846 30.05,86.005L31.383,84.671C32.137,83.917 32.602,82.95 32.693,81.949C32.79,80.879 32.437,79.855 31.725,79.144L29.302,76.72C29.394,76.666 29.49,76.621 29.569,76.542L51.383,54.73L72.469,75.814L75.712,87.91C75.827,88.341 76.165,88.677 76.598,88.793C76.705,88.82 76.813,88.836 76.92,88.836C77.249,88.836 77.566,88.707 77.807,88.471L86.891,79.384C87.207,79.069 87.33,78.608 87.216,78.176C87.1,77.745 86.762,77.407 86.33,77.291L74.243,74.05L53.152,52.961L68.013,38.101L72.027,42.114ZM30.201,81.723C30.163,82.134 29.948,82.563 29.612,82.899L28.28,84.235C27.908,84.606 27.421,84.828 26.975,84.828C26.778,84.828 26.501,84.785 26.292,84.578L20.125,78.41C19.679,77.964 19.836,77.053 20.466,76.42L21.8,75.089C22.169,74.718 22.657,74.496 23.104,74.496C23.301,74.496 23.578,74.539 23.786,74.745L29.954,80.913C30.211,81.166 30.219,81.529 30.201,81.723ZM83.587,79.146L77.566,85.166L75.361,76.941L83.587,79.146ZM63.309,28.879C63.309,28.247 63.555,27.653 63.928,27.275L75.391,17.521C76.428,16.485 77.966,15.867 79.507,15.867C80.035,15.867 80.522,15.945 80.916,16.092L81.082,16.14C82.79,16.518 85.52,17.376 86.244,18.099C86.764,18.619 87.967,21.576 88.747,23.958C89.368,26.186 87.434,28.342 86.757,29.024L77.134,40.343C76.242,41.236 74.69,41.236 73.797,40.343L64.001,30.55C63.555,30.102 63.309,29.51 63.309,28.879Z" style="fill-rule:nonzero;"/>
    </g>
</svg>
