<?xml version="1.0" encoding="utf-8"?>
<!-- Svg Vector Icons : http://www.onlinewebfonts.com/icon -->
<!DOCTYPE svg PUBLIC "-//W3C//DTD SVG 1.1//EN" "http://www.w3.org/Graphics/SVG/1.1/DTD/svg11.dtd">
<svg version="1.1" xmlns="http://www.w3.org/2000/svg" xmlns:xlink="http://www.w3.org/1999/xlink" x="0px" y="0px" viewBox="0 0 1000 1000" enable-background="new 0 0 1000 1000" xml:space="preserve">
<metadata> Svg Vector Icons : http://www.onlinewebfonts.com/icon </metadata>
<g><g transform="translate(0.000000,511.000000) scale(0.100000,-0.100000)"><path fill="#B76EB8"  d="M3038.3,4963.1c-125.6-53.8-163.7-242.2-69.5-338.7c69.5-69.5,161.5-92,246.7-60.6c60.6,24.7,80.7,17.9,233.3-78.5c271.4-168.2,556.2-426.1,722.2-650.4l67.3-91.9l-188.4-105.4c-343.2-192.9-641.5-511.4-809.7-865.7c-139.1-293.8-172.7-471-183.9-955.4c-9-311.8-20.2-432.9-38.1-432.9c-51.6,0-991.3-298.3-1325.5-419.4c-183.9-67.3-473.2-188.4-639.2-269.1C788.7,567.1,732.7,529,593.6,387.7C-130.8-336.7-45.6-1545.6,768.5-2169.2C1080.3-2406.9,1414.5-2519,1816-2519c408.2,0,789.5,132.3,1094.5,381.3l139.1,114.4v-468.7c0-394.8,6.7-495.7,44.9-643.7c109.9-430.6,441.8-805.2,959.9-1087.8c358.9-195.1,448.6-251.2,614.5-385.8c253.4-208.6,408.2-217.6,614.5-38.1c143.6,125.6,320.7,240,580.9,379.1c370.1,197.4,578.6,358.9,771.5,601.1c255.7,320.7,316.2,540.5,316.2,1188.7v455.3l141.3-114.4c509.1-417.2,1256-502.4,1845.8-213.1C9988.9-1837.2,10228.8-435.4,9408,387.7C9268.9,529,9212.8,567.1,8948.2,695c-166,80.7-444.1,199.6-616.8,262.4c-309.5,114.4-1294.1,426.1-1347.9,426.1c-18,0-29.2,116.6-38.1,432.9c-11.2,484.5-44.9,661.6-183.9,955.4c-168.2,354.4-466.5,672.9-807.4,865.7L5763.4,3743l71.8,100.9c161.5,224.3,426.1,462,719.9,643.7c150.3,94.2,170.5,100.9,231,76.3c136.8-49.3,300.5,51.6,300.5,183.9c0,179.4-163.7,291.6-311.8,215.3c-38.1-22.4-83-62.8-96.4-94.2c-13.4-29.2-87.5-89.7-166-132.3c-320.7-179.4-715.5-531.6-903.9-805.2c-67.3-98.7-80.7-105.4-145.8-96.5c-38.1,6.7-157,24.7-264.6,40.4c-188.4,24.7-329.7,15.7-659.4-40.4c-65-9-78.5-2.2-145.8,96.5c-186.2,271.4-587.6,628-903.9,805.2c-80.7,44.9-152.5,100.9-159.2,125.6c-15.7,49.3-136.8,132.3-190.6,132.3C3121.3,4992.2,3074.2,4978.8,3038.3,4963.1z M5343.9,3117.2c421.7-123.4,767.1-493.4,856.8-919.6c35.9-166,44.9-589.9,13.4-589.9c-9,0-257.9,60.6-547.2,134.6c-361.1,92-574.2,134.6-666.1,134.6c-92,0-305-42.6-666.1-134.6c-289.3-74-538.3-134.6-547.2-134.6c-31.4,0-22.4,423.9,13.5,589.9c62.8,293.8,260.2,587.6,504.6,753.6C4621.7,3162.1,4991.8,3220.4,5343.9,3117.2z M4065.5,751c-439.6-717.7-986.9-1547.6-1265-1924.4c-219.8-300.5-383.5-453-574.2-545c-143.5-67.3-166-71.8-410.4-71.8c-242.2,0-266.9,4.5-408.2,71.8C793.2-1429,625-657.5,1062.4-148.3c174.9,201.9,933,495.7,2245.1,870.2c666.1,188.4,818.6,231,859,233.3C4179.9,957.4,4135,863.2,4065.5,751z M6537.1,766.7C7627.1,459.5,8418.9,183.6,8762-11.5c201.9-114.4,343.2-327.5,401.5-607.8c94.2-446.3-139-894.9-569.7-1099c-141.3-67.3-166-71.8-408.2-71.8c-244.5,0-266.9,4.5-410.4,71.8c-273.6,130.1-453.1,338.7-998.1,1155.1c-226.5,338.7-764.8,1179.7-955.5,1496C5797,973.1,5826.2,966.3,6537.1,766.7z M5178,609.7l136.8-224.3l-157-6.7c-85.2-4.5-226.5-4.5-314,0l-154.8,6.7l150.3,251.2c114.4,188.4,157,244.5,175,224.3C5029.9,845.2,5101.7,733.1,5178,609.7z M5689.3-208.9c114.4-179.4,219.8-343.1,233.2-363.3c20.2-38.1-29.2-40.4-924.1-40.4h-944.2l47.1,74c26.9,38.1,132.3,206.3,233.3,367.8l183.9,298.3l480-6.7l480-4.5L5689.3-208.9z M6173.8-958c58.3-92,60.6-109.9,60.6-370.1v-271.4H5000.8H3767.2v271.4c0,260.2,2.2,278.1,62.8,370.1l60.6,98.7h1110.2H6111L6173.8-958z M6229.9-2220.7l-6.7-376.8l-1110.2-4.5c-610.1-4.5-1164,0-1226.9,6.7l-118.9,11.2v370.1v367.8h1233.6h1233.6L6229.9-2220.7z M6223.1-2916c-49.4-264.6-305-522.6-728.9-735.6c-92-47.1-242.2-132.3-331.9-192.9l-163.8-107.7l-130.1,87.5c-69.5,49.3-219.8,134.6-329.7,192.9c-475.5,251.2-711,484.5-760.3,755.8l-15.7,83h1238h1238.1L6223.1-2916z"/></g></g>
</svg>
